<?xml version="1.0" encoding="UTF-8" standalone="no"?>
<!-- Created with Inkscape (http://www.inkscape.org/) -->

<svg
   xmlns:osb="http://www.openswatchbook.org/uri/2009/osb"
   xmlns:dc="http://purl.org/dc/elements/1.1/"
   xmlns:cc="http://creativecommons.org/ns#"
   xmlns:rdf="http://www.w3.org/1999/02/22-rdf-syntax-ns#"
   xmlns:svg="http://www.w3.org/2000/svg"
   xmlns="http://www.w3.org/2000/svg"
   xmlns:sodipodi="http://sodipodi.sourceforge.net/DTD/sodipodi-0.dtd"
   xmlns:inkscape="http://www.inkscape.org/namespaces/inkscape"
   width="1026.5332"
   height="670.38745"
   id="svg2"
   version="1.1"
   inkscape:version="0.48.4 r9939"
   sodipodi:docname="drawing_CherenkovSetup.svg"
   inkscape:export-filename="/home/anne/PhD/thesis/Figures/drawing_CherenkovSetup.png"
   inkscape:export-xdpi="90"
   inkscape:export-ydpi="90">
  <sodipodi:namedview
     id="base"
     pagecolor="#ffffff"
     bordercolor="#666666"
     borderopacity="1.0"
     inkscape:pageopacity="0.0"
     inkscape:pageshadow="2"
     inkscape:zoom="0.9"
     inkscape:cx="429.84421"
     inkscape:cy="427.52451"
     inkscape:document-units="px"
     inkscape:current-layer="layer1"
     showgrid="true"
     inkscape:snap-grids="true"
     inkscape:window-width="1863"
     inkscape:window-height="1059"
     inkscape:window-x="1657"
     inkscape:window-y="21"
     inkscape:window-maximized="1"
     fit-margin-top="0"
     fit-margin-left="0"
     fit-margin-right="0"
     fit-margin-bottom="0">
    <inkscape:grid
       type="xygrid"
       id="grid2985"
       empspacing="5"
       visible="true"
       enabled="true"
       snapvisiblegridlinesonly="true"
       originx="14px"
       originy="-0.0032070618px" />
  </sodipodi:namedview>
  <defs
     id="defs4">
    <marker
       inkscape:stockid="Arrow1Mstart"
       orient="auto"
       refY="0"
       refX="0"
       id="Arrow1Mstart"
       style="overflow:visible">
      <path
         id="path4811"
         d="M 0,0 5,-5 -12.5,0 5,5 0,0 z"
         style="fill-rule:evenodd;stroke:#000000;stroke-width:1pt"
         transform="matrix(0.4,0,0,0.4,4,0)"
         inkscape:connector-curvature="0" />
    </marker>
    <marker
       inkscape:stockid="Arrow2Mstart"
       orient="auto"
       refY="0"
       refX="0"
       id="Arrow2Mstart"
       style="overflow:visible">
      <path
         id="path4829"
         style="fill-rule:evenodd;stroke-width:0.625;stroke-linejoin:round"
         d="M 8.7185878,4.0337352 -2.2072895,0.01601326 8.7185884,-4.0017078 c -1.7454984,2.3720609 -1.7354408,5.6174519 -6e-7,8.035443 z"
         transform="scale(0.6,0.6)"
         inkscape:connector-curvature="0" />
    </marker>
    <marker
       inkscape:stockid="Arrow2Lend"
       orient="auto"
       refY="0"
       refX="0"
       id="Arrow2Lend"
       style="overflow:visible">
      <path
         id="path4826"
         style="fill-rule:evenodd;stroke-width:0.625;stroke-linejoin:round"
         d="M 8.7185878,4.0337352 -2.2072895,0.01601326 8.7185884,-4.0017078 c -1.7454984,2.3720609 -1.7354408,5.6174519 -6e-7,8.035443 z"
         transform="matrix(-1.1,0,0,-1.1,-1.1,0)"
         inkscape:connector-curvature="0" />
    </marker>
    <marker
       inkscape:stockid="Arrow1Lend"
       orient="auto"
       refY="0"
       refX="0"
       id="Arrow1Lend"
       style="overflow:visible">
      <path
         id="path4808"
         d="M 0,0 5,-5 -12.5,0 5,5 0,0 z"
         style="fill-rule:evenodd;stroke:#000000;stroke-width:1pt"
         transform="matrix(-0.8,0,0,-0.8,-10,0)"
         inkscape:connector-curvature="0" />
    </marker>
    <marker
       inkscape:stockid="Arrow1Lstart"
       orient="auto"
       refY="0"
       refX="0"
       id="Arrow1Lstart"
       style="overflow:visible">
      <path
         id="path4805"
         d="M 0,0 5,-5 -12.5,0 5,5 0,0 z"
         style="fill-rule:evenodd;stroke:#000000;stroke-width:1pt"
         transform="matrix(0.8,0,0,0.8,10,0)"
         inkscape:connector-curvature="0" />
    </marker>
    <linearGradient
       id="linearGradient3883"
       osb:paint="solid">
      <stop
         style="stop-color:#000000;stop-opacity:1;"
         offset="0"
         id="stop3885" />
    </linearGradient>
    <inkscape:perspective
       sodipodi:type="inkscape:persp3d"
       inkscape:vp_x="-23.889682 : 390.81405 : 1"
       inkscape:vp_y="0 : 2312.9983 : 0"
       inkscape:vp_z="1050.3911 : 378.32543 : 1"
       inkscape:persp3d-origin="657.35545 : 367.71155 : 1"
       id="perspective3019" />
    <inkscape:perspective
       sodipodi:type="inkscape:persp3d"
       inkscape:vp_x="1.6843263 : 390.60732 : 1"
       inkscape:vp_y="0 : 2495.3851 : 0"
       inkscape:vp_z="1051.5963 : 378.71474 : 1"
       inkscape:persp3d-origin="490.84766 : 384.05267 : 1"
       id="perspective2987" />
    <marker
       inkscape:stockid="Arrow1Lstarte"
       orient="auto"
       refY="0"
       refX="0"
       id="Arrow1Lstarte"
       style="overflow:visible">
      <path
         id="path7884"
         d="M 0,0 5,-5 -12.5,0 5,5 0,0 z"
         style="fill:#656565;fill-rule:evenodd;stroke:#656565;stroke-width:1pt"
         transform="matrix(0.8,0,0,0.8,10,0)"
         inkscape:connector-curvature="0" />
    </marker>
    <marker
       inkscape:stockid="Arrow1Lstartep"
       orient="auto"
       refY="0"
       refX="0"
       id="Arrow1Lstartep"
       style="overflow:visible">
      <path
         id="path8322"
         d="M 0,0 5,-5 -12.5,0 5,5 0,0 z"
         style="fill:#843232;fill-rule:evenodd;stroke:#843232;stroke-width:1pt"
         transform="matrix(0.8,0,0,0.8,10,0)"
         inkscape:connector-curvature="0" />
    </marker>
  </defs>
  <metadata
     id="metadata7">
    <rdf:RDF>
      <cc:Work
         rdf:about="">
        <dc:format>image/svg+xml</dc:format>
        <dc:type
           rdf:resource="http://purl.org/dc/dcmitype/StillImage" />
        <dc:title></dc:title>
      </cc:Work>
    </rdf:RDF>
  </metadata>
  <g
     inkscape:label="Layer 1"
     inkscape:groupmode="layer"
     id="layer1"
     transform="translate(14,-381.97156)">
    <path
       style="fill:none;stroke:#000000;stroke-width:1px;stroke-linecap:butt;stroke-linejoin:miter;stroke-opacity:1"
       d="m 1050,672.36218 c -1.0145,0 -2.029,0 0,0 z"
       id="path3805"
       inkscape:connector-curvature="0" />
    <path
       style="fill:none;stroke:#000000;stroke-width:1px;stroke-linecap:butt;stroke-linejoin:miter;stroke-opacity:1"
       d="m 1050,672.36218 c -0.4348,0.28986 -1.0145,1.30435 -1.3043,0.86957 -0.2899,-0.43478 0.8695,-0.57971 1.3043,-0.86957 z"
       id="path3807"
       inkscape:connector-curvature="0" />
    <g
       id="g8696">
      <g
         transform="translate(-70,0)"
         id="g4777">
        <path
           style="fill:none;stroke:#000000;stroke-width:1px;stroke-linecap:butt;stroke-linejoin:miter;stroke-opacity:1"
           d="m 542.03012,656.23678 149.93976,4.2508 z"
           id="path4605"
           inkscape:connector-curvature="0" />
        <path
           style="fill:none;stroke:#000000;stroke-width:1px;stroke-linecap:butt;stroke-linejoin:miter;stroke-opacity:1"
           d="m 541.88482,672.1389 150.23036,-5.55344 z"
           id="path4607"
           inkscape:connector-curvature="0" />
        <path
           inkscape:transform-center-y="3.6342016"
           transform="matrix(0.62504344,0,0,0.80211314,361.66189,235.59657)"
           d="m 300,534.09448 c 0,5.52285 -4.47715,10 -10,10 -5.52285,0 -10,-4.47715 -10,-10 0,-5.52285 4.47715,-10 10,-10 5.52285,0 10,4.47715 10,10 z"
           sodipodi:ry="10"
           sodipodi:rx="10"
           sodipodi:cy="534.09448"
           sodipodi:cx="290"
           id="path4609"
           style="fill:#b54a51;fill-opacity:1;stroke:#000000;stroke-opacity:1"
           sodipodi:type="arc" />
        <path
           sodipodi:type="arc"
           style="fill:#656565;fill-opacity:1;stroke:#000000;stroke-opacity:1"
           id="path4611"
           sodipodi:cx="290"
           sodipodi:cy="534.09448"
           sodipodi:rx="10"
           sodipodi:ry="10"
           d="m 300,534.09448 c 0,5.52285 -4.47715,10 -10,10 -5.52285,0 -10,-4.47715 -10,-10 0,-5.52285 4.47715,-10 10,-10 5.52285,0 10,4.47715 10,10 z"
           transform="matrix(0.19518703,0,0,0.32915328,635.2168,487.7708)"
           inkscape:transform-center-y="1.4913336" />
        <path
           style="opacity:0.5;fill:#656565;fill-opacity:1;stroke:#000000;stroke-width:0.21551724;stroke-opacity:1"
           d="m 547.15467,670.54629 c 2.95778,-2.95777 3.22846,-8.93448 0.56407,-12.45475 l -0.81672,-1.07907 0.69712,10e-4 c 0.38342,8e-4 33.03657,0.91983 72.56257,2.04228 47.44518,1.34734 71.91071,1.9676 71.99863,1.82534 0.14591,-0.23609 0.64844,0.25497 1.04357,1.01976 0.31416,0.60807 0.31416,2.76079 0,3.36886 -0.44036,0.85233 -0.89323,1.26302 -1.07264,0.97273 -0.12643,-0.20457 -15.97115,0.31747 -71.78311,2.36509 -39.39147,1.44518 -72.1684,2.66621 -72.83761,2.71339 l -1.21675,0.0858 0.86087,-0.86088 0,0 z"
           id="path4613"
           inkscape:connector-curvature="0" />
      </g>
      <path
         sodipodi:type="arc"
         style="opacity:0.5;fill:#000000;fill-opacity:1;stroke:#040404;stroke-opacity:1"
         id="path4210"
         sodipodi:cx="505"
         sodipodi:cy="634.09448"
         sodipodi:rx="65"
         sodipodi:ry="20"
         d="m 570,634.09448 c 0,11.0457 -29.10149,20 -65,20 -35.89851,0 -65,-8.9543 -65,-20 0,-11.04569 29.10149,-20 65,-20 35.89851,0 65,8.95431 65,20 z"
         transform="matrix(0.57244366,-0.06052188,0.17969082,0.99150148,344.68427,433.49961)" />
      <path
         inkscape:connector-curvature="0"
         id="path4250"
         d="m 729.83565,1049.9617 c -6.85689,-1.797 -8.85638,-2.6941 -12.99582,-5.8303 -5.2608,-3.9858 -5.51331,-5.4221 -5.51331,-31.3596 l 0,-23.44949 3.25773,3.07243 c 13.97194,13.17726 51.36671,11.26726 66.0901,-3.37564 l 3.69565,-3.67544 0,23.20694 c 0,26.1565 -0.12131,26.7985 -6.08024,32.1758 -10.34948,9.3394 -32.18029,13.5003 -48.45411,9.2353 z"
         style="opacity:0.8;fill:#000000;fill-opacity:1;stroke:#040404;stroke-width:0.86956519;stroke-opacity:1" />
      <path
         inkscape:connector-curvature="0"
         id="path3803"
         d="m 0,662.36218 c 5.54861,1.80502 4.2317969,1.57315 10,0"
         style="fill:none;stroke:#000000;stroke-width:1px;stroke-linecap:butt;stroke-linejoin:miter;stroke-opacity:1" />
      <g
         transform="translate(0,-2)"
         id="g4630">
        <path
           transform="matrix(0.57244366,-0.06052188,0.17969082,0.99150148,344.68427,382.2697)"
           d="m 570,634.09448 c 0,11.0457 -29.10149,20 -65,20 -35.89851,0 -65,-8.9543 -65,-20 0,-11.04569 29.10149,-20 65,-20 35.89851,0 65,8.95431 65,20 z"
           sodipodi:ry="20"
           sodipodi:rx="65"
           sodipodi:cy="634.09448"
           sodipodi:cx="505"
           id="path4212"
           style="opacity:0.5;fill:#000000;fill-opacity:1;stroke:#000000;stroke-opacity:1"
           sodipodi:type="arc" />
        <path
           inkscape:connector-curvature="0"
           id="path4214"
           d="m 785.02409,976.81054 0,53.06906 z"
           style="fill:#000000;fill-opacity:1;stroke:#000000;stroke-width:0.58278799px;stroke-linecap:butt;stroke-linejoin:miter;stroke-opacity:1" />
        <path
           inkscape:connector-curvature="0"
           id="path4216"
           d="m 710.96287,983.23531 c 0,128.33249 0,0 0,0 z"
           style="fill:#000000;fill-opacity:1;stroke:#584949;stroke-width:0.75486839px;stroke-linecap:butt;stroke-linejoin:miter;stroke-opacity:1" />
        <path
           sodipodi:type="arc"
           style="opacity:0.5;fill:none;stroke:#000000;stroke-opacity:1"
           id="path4070-1"
           sodipodi:cx="505"
           sodipodi:cy="634.09448"
           sodipodi:rx="65"
           sodipodi:ry="20"
           d="m 570,634.09448 c 0,11.0457 -29.10149,20 -65,20 -35.89851,0 -65,-8.9543 -65,-20 0,-11.04569 29.10149,-20 65,-20 35.89851,0 65,8.95431 65,20 z"
           transform="matrix(1.4907387,-0.15760905,0.46794485,2.5820351,-308.71829,-580.34223)" />
        <path
           sodipodi:type="arc"
           style="fill:#3b3b3b;fill-opacity:1;stroke:#000000;stroke-opacity:1"
           id="path4070"
           sodipodi:cx="505"
           sodipodi:cy="634.09448"
           sodipodi:rx="65"
           sodipodi:ry="20"
           d="m 570,634.09448 c 0,11.0457 -29.10149,20 -65,20 -35.89851,0 -65,-8.9543 -65,-20 0,-11.04569 29.10149,-20 65,-20 35.89851,0 65,8.95431 65,20 z"
           transform="matrix(1.4907387,-0.15760905,0.46794485,2.5820351,-308.71829,-625.2118)" />
        <path
           style="fill:none;stroke:#584949;stroke-width:1.61782181px;stroke-linecap:butt;stroke-linejoin:miter;stroke-opacity:1"
           d="m 644,938.56558 c 0,130.86732 0,0 0,0 z"
           id="path4094"
           inkscape:connector-curvature="0" />
        <path
           style="fill:#1e1e1e;fill-opacity:1;stroke:#000000;stroke-width:0.91807032;stroke-opacity:1"
           d="m 708.63775,1029.6536 c -30.4573,-4.6878 -53.42823,-18.0357 -61.439,-35.70078 l -2.85379,-6.29312 -0.31764,-20.61891 -0.31764,-20.61891 3.68717,5.99028 c 8.25957,13.4187 25.38537,23.82151 48.4645,29.43904 53.52534,13.02826 118.00655,-5.49656 139.24762,-40.00446 l 3.66063,-5.947 -0.39674,20.08773 c -0.45414,22.99216 -0.91991,25.08863 -7.85012,35.33432 -12.28051,18.15551 -40.17244,32.62111 -72.98227,37.85071 -13.84181,2.2063 -36.26157,2.4269 -48.90272,0.4811 z"
           id="path4199"
           inkscape:connector-curvature="0" />
        <text
           xml:space="preserve"
           style="font-size:40px;font-style:normal;font-weight:normal;line-height:125%;letter-spacing:0px;word-spacing:0px;fill:#000000;fill-opacity:1;stroke:none;font-family:Sans"
           x="856.86957"
           y="954.10132"
           id="text4291"
           sodipodi:linespacing="125%"><tspan
             sodipodi:role="line"
             id="tspan4293"
             x="856.86957"
             y="954.10132">PMT</tspan></text>
      </g>
      <text
         sodipodi:linespacing="125%"
         id="text4295"
         y="750.62305"
         x="857.82611"
         style="font-size:40px;font-style:normal;font-weight:normal;line-height:125%;letter-spacing:0px;word-spacing:0px;fill:#000000;fill-opacity:1;stroke:none;font-family:Sans"
         xml:space="preserve"><tspan
           style="fill:#000000;fill-opacity:1;stroke:#8284f2;stroke-opacity:1"
           y="750.62305"
           x="857.82611"
           id="tspan4297"
           sodipodi:role="line">Light</tspan><tspan
           style="fill:#000000;fill-opacity:1;stroke:#8284f2;stroke-opacity:1"
           id="tspan4299"
           y="800.62305"
           x="857.82611"
           sodipodi:role="line">channel</tspan></text>
      <g
         id="g8081">
        <g
           id="g8068">
          <path
             inkscape:connector-curvature="0"
             id="path7473"
             d="m 624.14362,664.21856 27.00443,-49.08776 0,0 0,0 z"
             style="fill:#656565;fill-opacity:1;stroke:#656565;stroke-width:1.28699994;stroke-linecap:butt;stroke-linejoin:miter;stroke-miterlimit:4;stroke-opacity:1;stroke-dasharray:none;marker-start:url(#Arrow1Lstarte)" />
          <path
             inkscape:connector-curvature="0"
             id="path7665"
             d="m 652.7962,611.23824 -23.25905,44.78953 z"
             style="fill:#656565;fill-opacity:1;stroke:#656565;stroke-width:2.59151912;stroke-linecap:butt;stroke-linejoin:miter;stroke-miterlimit:4;stroke-opacity:1;stroke-dasharray:none" />
          <path
             style="fill:#656565;fill-opacity:1;stroke:#656565;stroke-width:2.59151912;stroke-linecap:butt;stroke-linejoin:miter;stroke-miterlimit:4;stroke-opacity:1;stroke-dasharray:none"
             d="m 652.7962,611.23824 -23.25905,44.78953 z"
             id="path8066"
             inkscape:connector-curvature="0" />
        </g>
        <text
           sodipodi:linespacing="125%"
           id="text4790"
           y="552.36218"
           x="550"
           style="font-size:40px;font-style:normal;font-weight:normal;line-height:125%;letter-spacing:0px;word-spacing:0px;fill:#000000;fill-opacity:1;stroke:none;font-family:Sans"
           xml:space="preserve"><tspan
             style="fill:#656565;fill-opacity:1"
             y="552.36218"
             x="550"
             id="tspan4792"
             sodipodi:role="line">Circular</tspan><tspan
             style="fill:#656565;fill-opacity:1"
             id="tspan4794"
             y="602.36218"
             x="550"
             sodipodi:role="line">beam pipe</tspan></text>
      </g>
      <g
         transform="translate(0,-4)"
         id="g4498">
        <path
           style="fill:none;stroke:#000000;stroke-width:0.92598504px;stroke-linecap:butt;stroke-linejoin:miter;stroke-opacity:1"
           d="m 838,922.2909 0,51.4469 z"
           id="path4092"
           inkscape:connector-curvature="0" />
        <path
           inkscape:connector-curvature="0"
           id="path3919"
           style="opacity:0.5;fill:#353564;fill-rule:evenodd;stroke:#000000;stroke-opacity:1"
           d="m 650,696.85542 0,239.23548 78.71006,-51.28232 0,-192.45608 z" />
        <path
           inkscape:connector-curvature="0"
           id="path3921"
           style="opacity:0.5;fill:#e9e9ff;fill-rule:evenodd;stroke:#000000;stroke-opacity:1"
           d="m 728.71006,692.3525 96.07901,3.6898 0,217.98663 -96.07901,-29.22035 z" />
        <path
           inkscape:connector-curvature="0"
           id="path3925"
           style="opacity:0.5;fill:#d7d7ff;fill-rule:evenodd;stroke:#000000;stroke-opacity:1"
           d="m 760,702.36218 0,280 64.78907,-68.33325 0,-217.98663 z" />
        <path
           inkscape:connector-curvature="0"
           id="path3927"
           style="opacity:0.5;fill:#8686bf;fill-rule:evenodd;stroke:#000000;stroke-opacity:1"
           d="m 650,696.85542 110,5.50676 0,280 -110,-46.27128 z" />
        <path
           inkscape:connector-curvature="0"
           id="path4317"
           style="opacity:0.5;fill:#afafde;fill-opacity:1;fill-rule:evenodd;stroke:#000000;stroke-opacity:1"
           d="m 510,689.59435 250,12.76783 64.76126,-7.15954 -227.46561,-8.72196 z" />
        <path
           inkscape:connector-curvature="0"
           id="path4319"
           style="opacity:0.5;fill:#353564;fill-opacity:1;fill-rule:evenodd;stroke:#000000;stroke-opacity:1"
           d="m 510,647.36218 0,42.23217 87.29565,-3.11367 0,-35.39961 z" />
        <path
           inkscape:connector-curvature="0"
           id="path4321"
           style="opacity:0.5;fill:#e9e9ff;fill-opacity:1;fill-rule:evenodd;stroke:#000000;stroke-opacity:1"
           d="m 597.29565,651.08107 227.46561,-4.81246 0,48.93403 -227.46561,-8.72196 z" />
        <path
           inkscape:connector-curvature="0"
           id="path4323"
           style="opacity:0.5;fill:#4d4d9f;fill-opacity:1;fill-rule:evenodd;stroke:#000000;stroke-opacity:1"
           d="m 510,647.36218 250,-8.03019 64.76126,6.93662 -227.46561,4.81246 z" />
        <path
           inkscape:connector-curvature="0"
           id="path4325"
           style="opacity:0.5;fill:#d7d7ff;fill-opacity:1;fill-rule:evenodd;stroke:#000000;stroke-opacity:1"
           d="m 760,639.33199 0,63.03019 64.76126,-7.15954 0,-48.93403 z" />
        <path
           inkscape:connector-curvature="0"
           id="path4327"
           style="opacity:0.5;fill:#8686bf;fill-opacity:1;fill-rule:evenodd;stroke:#000000;stroke-opacity:1"
           d="m 510,647.36218 250,-8.03019 0,63.03019 -250,-12.76783 z" />
        <path
           inkscape:connector-curvature="0"
           id="path4445"
           style="opacity:0.5;fill:#afafde;fill-opacity:1;fill-rule:evenodd;stroke:#000000;stroke-width:0.97441655;stroke-opacity:1"
           d="m 489.9815,690.2803 54.13681,3.01556 19.85536,-0.79594 -54.13229,-2.83248 z" />
        <path
           inkscape:connector-curvature="0"
           id="path4447"
           style="opacity:0.5;fill:#353564;fill-opacity:1;fill-rule:evenodd;stroke:#000000;stroke-width:0.97441655;stroke-opacity:1"
           d="m 489.9815,646.03985 0,44.24045 19.85988,-0.61286 0,-42.67699 z" />
        <path
           inkscape:connector-curvature="0"
           id="path4449"
           style="opacity:0.5;fill:#e9e9ff;fill-opacity:1;fill-rule:evenodd;stroke:#000000;stroke-width:0.97441655;stroke-opacity:1"
           d="m 509.84138,646.99045 54.13229,-1.70631 0,47.21578 -54.13229,-2.83248 z" />
        <path
           inkscape:connector-curvature="0"
           id="path4451"
           style="opacity:0.5;fill:#4d4d9f;fill-opacity:1;fill-rule:evenodd;stroke:#000000;stroke-width:0.97441655;stroke-opacity:1"
           d="m 489.9815,646.03985 54.13681,-1.88094 19.85536,1.12523 -54.13229,1.70631 z" />
        <path
           inkscape:connector-curvature="0"
           id="path4453"
           style="opacity:0.5;fill:#d7d7ff;fill-opacity:1;fill-rule:evenodd;stroke:#000000;stroke-width:0.97441655;stroke-opacity:1"
           d="m 544.11831,644.15891 0,49.13695 19.85536,-0.79594 0,-47.21578 z" />
        <path
           inkscape:connector-curvature="0"
           id="path4455"
           style="opacity:0.5;fill:#8686bf;fill-opacity:1;fill-rule:evenodd;stroke:#000000;stroke-width:0.97441655;stroke-opacity:1"
           d="m 489.9815,646.03985 54.13681,-1.88094 0,49.13695 -54.13681,-3.01556 z" />
      </g>
      <path
         transform="matrix(0.86909739,0.00478547,-0.00652469,1.1849608,182.72871,231.79516)"
         d="m 400,364.09448 c 0,22.09139 -17.90861,40 -40,40 -22.09139,0 -40,-17.90861 -40,-40 0,-22.09139 17.90861,-40 40,-40 22.09139,0 40,17.90861 40,40 z"
         sodipodi:ry="40"
         sodipodi:rx="40"
         sodipodi:cy="364.09448"
         sodipodi:cx="360"
         id="path4463"
         style="fill:#dcdcdc;fill-opacity:0.56470588;stroke:#000000;stroke-opacity:1"
         sodipodi:type="arc" />
      <g
         id="g8514">
        <g
           id="g8504"
           transform="translate(0,-172)">
          <path
             inkscape:connector-curvature="0"
             id="path8079"
             d="M 530.80617,938.27869 483.1522,858.60596 z"
             style="fill:#656565;fill-opacity:1;stroke:#843232;stroke-width:3.28999996;stroke-linecap:butt;stroke-linejoin:miter;stroke-miterlimit:4;stroke-opacity:1;stroke-dasharray:none" />
          <path
             style="fill:#656565;fill-opacity:1;stroke:#843232;stroke-width:1.28699994;stroke-linecap:butt;stroke-linejoin:miter;stroke-miterlimit:4;stroke-opacity:1;stroke-dasharray:none;marker-start:url(#Arrow1Lstartep)"
             d="m 478.14364,848.58594 27.00443,49.08776 0,0 0,0 z"
             id="path8075"
             inkscape:connector-curvature="0" />
        </g>
        <g
           id="g8508"
           transform="matrix(0.92848031,0.32022302,-0.38061845,0.78929407,393.83303,-145.8612)">
          <path
             style="fill:#656565;fill-opacity:1;stroke:#843232;stroke-width:3.28999996;stroke-linecap:butt;stroke-linejoin:miter;stroke-miterlimit:4;stroke-opacity:1;stroke-dasharray:none"
             d="M 530.80617,938.27869 483.1522,858.60596 z"
             id="path8510"
             inkscape:connector-curvature="0" />
          <path
             inkscape:connector-curvature="0"
             id="path8512"
             d="m 478.14364,848.58594 27.00443,49.08776 0,0 0,0 z"
             style="fill:#656565;fill-opacity:1;stroke:#843232;stroke-width:1.28699994;stroke-linecap:butt;stroke-linejoin:miter;stroke-miterlimit:4;stroke-opacity:1;stroke-dasharray:none;marker-start:url(#Arrow1Lstartep)" />
        </g>
      </g>
      <path
         sodipodi:type="arc"
         style="opacity:0.5;fill:#560005;fill-opacity:0.86757992;stroke:#000000;stroke-opacity:1"
         id="path4591"
         sodipodi:cx="290"
         sodipodi:cy="534.09448"
         sodipodi:rx="10"
         sodipodi:ry="10"
         d="m 300,534.09448 c 0,5.52285 -4.47715,10 -10,10 -5.52285,0 -10,-4.47715 -10,-10 0,-5.52285 4.47715,-10 10,-10 5.52285,0 10,4.47715 10,10 z"
         transform="matrix(0.65855901,0,0,0.8451234,319.58823,212.17594)"
         inkscape:transform-center-y="3.8290706" />
      <g
         style="fill:#656565;fill-opacity:0.56621004;stroke:#000000;stroke-opacity:1"
         transform="translate(70,0)"
         id="g4485">
        <path
           transform="matrix(0.93368998,0.00500235,-0.00700961,1.2386628,69.03785,211.98608)"
           d="m 400,364.09448 c 0,22.09139 -17.90861,40 -40,40 -22.09139,0 -40,-17.90861 -40,-40 0,-22.09139 17.90861,-40 40,-40 22.09139,0 40,17.90861 40,40 z"
           sodipodi:ry="40"
           sodipodi:rx="40"
           sodipodi:cy="364.09448"
           sodipodi:cx="360"
           id="path4465"
           style="fill:#656565;fill-opacity:0.56621004;stroke:#000000;stroke-opacity:1"
           sodipodi:type="arc" />
        <path
           style="fill:#656565;fill-opacity:0.56621004;stroke:#000000;stroke-width:0.92669344px;stroke-linecap:butt;stroke-linejoin:miter;stroke-opacity:1"
           d="m 427.41404,616.9936 -23.34263,-2.1342 z"
           id="path4467"
           inkscape:connector-curvature="0" />
        <path
           inkscape:connector-curvature="0"
           id="path4469"
           d="m 427.41404,712.8594 -23.34263,2.1342 z"
           style="fill:#656565;fill-opacity:0.56621004;stroke:#000000;stroke-width:0.92669344px;stroke-linecap:butt;stroke-linejoin:miter;stroke-opacity:1" />
      </g>
      <path
         inkscape:connector-curvature="0"
         id="path4483"
         d="m 485.35056,712.11927 c 4.59558,-2.48915 12.18445,-9.88851 15.55003,-15.16177 5.882,-9.21601 8.90781,-20.1072 8.9426,-32.18811 0.0323,-11.21328 -2.05407,-20.04021 -6.77276,-28.65426 -4.33173,-7.90768 -9.72672,-13.80689 -16.24014,-17.75804 l -3.55137,-2.15431 5.32705,0.3593 c 11.08049,0.74735 16.98126,3.10871 24.02858,9.61573 10.08263,9.30957 15.49082,22.75799 15.51939,38.59158 0.0307,17.14339 -6.68091,32.2313 -18.39408,41.34917 -5.73189,4.46187 -11.03698,6.42688 -18.51645,6.85852 -2.42722,0.14007 -5.47853,0.4011 -6.7807,0.58006 l -2.36757,0.32537 3.25542,-1.76324 z"
         style="opacity:0.64197531;fill:#dcdcdc;fill-opacity:1;stroke:none" />
      <text
         sodipodi:linespacing="125%"
         id="text4593"
         y="752.36218"
         x="340"
         style="font-size:40px;font-style:normal;font-weight:normal;line-height:125%;letter-spacing:0px;word-spacing:0px;fill:#000000;fill-opacity:1;stroke:none;font-family:Sans"
         xml:space="preserve"><tspan
           style="fill:#656565;fill-opacity:1"
           y="752.36218"
           x="340"
           id="tspan4595"
           sodipodi:role="line">Flange</tspan><tspan
           id="tspan4786"
           style="fill:#656565;fill-opacity:1"
           y="802.36218"
           x="340"
           sodipodi:role="line">with two <tspan
   id="tspan8522"
   style="fill:#843232;fill-opacity:1">holes</tspan></tspan></text>
      <path
         d="m 134.6091,673.7977 20.16249,1.68494 342.85966,-1.45673 -43.74297,-0.97097 z"
         style="fill:#afafde;fill-opacity:0.543379;fill-rule:evenodd;stroke:#000000;stroke-opacity:1"
         id="path4563"
         inkscape:connector-curvature="0" />
      <path
         d="m 134.6091,646.10165 0,27.69605 319.27918,-0.74276 0,-18.09513 z"
         style="fill:#656565;fill-opacity:0.543379;fill-rule:evenodd;stroke:#000000;stroke-opacity:1"
         id="path4565"
         inkscape:connector-curvature="0" />
      <path
         d="m 134.6091,646.10165 20.16249,-2.69203 342.85966,10.74983 -43.74297,0.80036 z"
         style="fill:#747478;fill-opacity:0.543379;fill-rule:evenodd;stroke:#000000;stroke-opacity:1"
         id="path4569"
         inkscape:connector-curvature="0" />
      <path
         d="m 154.77159,643.40962 0,32.07302 342.85966,-1.45673 0,-19.86646 z"
         style="fill:#dcdcdc;fill-opacity:0.35616443;fill-rule:evenodd;stroke:#000000;stroke-opacity:1"
         id="path4571"
         inkscape:connector-curvature="0" />
      <path
         d="m 134.6091,646.10165 20.16249,-2.69203 0,32.07302 -20.16249,-1.68494 z"
         style="fill:#9e9b9b;fill-opacity:1;fill-rule:evenodd;stroke:#000000;stroke-opacity:1"
         id="path4573"
         inkscape:connector-curvature="0" />
      <text
         sodipodi:linespacing="125%"
         id="text4597"
         y="582.36218"
         x="210"
         style="font-size:40px;font-style:normal;font-weight:normal;line-height:125%;letter-spacing:0px;word-spacing:0px;fill:#000000;fill-opacity:1;stroke:none;font-family:Sans"
         xml:space="preserve"><tspan
           style="fill:#656565;fill-opacity:1"
           y="582.36218"
           x="210"
           id="tspan4599"
           sodipodi:role="line">Rectangular</tspan><tspan
           style="fill:#656565;fill-opacity:1"
           id="tspan4601"
           y="632.36218"
           x="210"
           sodipodi:role="line">beam pipe</tspan></text>
      <path
         d="M -13.033129,745.03867 -0.68555047,839.99569 198.72524,808.50988 91.961319,738.02847 z"
         style="fill:#025600;fill-opacity:0.56470588;fill-rule:evenodd;stroke:#000000;stroke-opacity:1"
         id="path4707"
         inkscape:connector-curvature="0" />
      <path
         d="m -13.033129,578.09056 0,166.94811 104.994448,-7.0102 0,-150.46491 z"
         style="fill:#012a00;fill-opacity:0.56470588;fill-rule:evenodd;stroke:#000000;stroke-opacity:1"
         id="path4709"
         inkscape:connector-curvature="0" />
      <path
         d="m 91.961319,587.56356 106.763921,-68.18139 0,289.12771 -106.763921,-70.48141 z"
         style="fill:#e9e9ff;fill-opacity:0.56470588;fill-rule:evenodd;stroke:#000000;stroke-opacity:1"
         id="path4711"
         inkscape:connector-curvature="0" />
      <path
         d="M -13.033129,578.09056 -0.68555047,483.17103 198.72524,519.38217 91.961319,587.56356 z"
         style="fill:#025600;fill-opacity:0.56470588;fill-rule:evenodd;stroke:#000000;stroke-opacity:1"
         id="path4713"
         inkscape:connector-curvature="0" />
      <path
         d="m -0.68555047,483.17103 0,356.82466 199.41079047,-31.48581 0,-289.12771 z"
         style="fill:#025600;fill-opacity:0.86757992;fill-rule:evenodd;stroke:#000000;stroke-opacity:1"
         id="path4715"
         inkscape:connector-curvature="0" />
      <text
         sodipodi:linespacing="125%"
         id="text4725"
         y="412.36218"
         x="10"
         style="font-size:40px;font-style:normal;font-weight:normal;line-height:125%;letter-spacing:0px;word-spacing:0px;fill:#000000;fill-opacity:1;stroke:none;font-family:Sans"
         xml:space="preserve"><tspan
           style="fill:#025600;fill-opacity:0.9254902"
           y="412.36218"
           x="10"
           id="tspan4727"
           sodipodi:role="line">Bending</tspan><tspan
           style="fill:#025600;fill-opacity:0.9254902"
           id="tspan4729"
           y="462.36218"
           x="10"
           sodipodi:role="line">magnet</tspan></text>
      <rect
         y="462.36221"
         x="-14"
         height="400"
         width="14.444445"
         id="rect8610"
         style="fill:#ffffff;fill-opacity:1;stroke:none" />
    </g>
  </g>
</svg>
